<svg width="400" height="400" viewBox="0 0 400 400" fill="none" xmlns="http://www.w3.org/2000/svg">
    <path d="M354.066 245.824V208.185C354.066 208.185 354.213 173.045 337.577 173.143C317.677 173.26 317.209 208.185 317.209 208.185V259.847H367.51C354.273 259.571 354.066 245.824 354.066 245.824Z" fill="#D5FEC8"/>
    <path d="M270.058 275.329V54.1771H71.1636V275.331C71.1634 280.684 72.2177 285.986 74.2662 290.933C76.3149 295.88 79.3178 300.374 83.1034 304.159C86.8889 307.946 91.3834 310.948 96.3295 312.996C101.276 315.044 106.577 316.099 111.931 316.099H209.015" stroke="black" stroke-width="2" stroke-linecap="round" stroke-linejoin="round"/>
    <path d="M317.211 275.329V208.185C317.211 208.185 317.687 173.26 337.579 173.143C354.215 173.045 354.068 208.185 354.068 208.185" stroke="black" stroke-width="2" stroke-linecap="round" stroke-linejoin="round"/>
    <path d="M382.915 208.185H354.06V245.824C354.06 245.824 354.259 259.571 367.504 259.847C382.569 260.166 383.393 244.061 382.915 208.185Z" stroke="black" stroke-width="2" stroke-linecap="round" stroke-linejoin="round"/>
    <path d="M93.189 83.585H239.689" stroke="black" stroke-width="2" stroke-linecap="round" stroke-linejoin="round"/>
    <path d="M99.4751 93.4972H233.402" stroke="black" stroke-width="2" stroke-linecap="round" stroke-linejoin="round"/>
    <path d="M99.4751 103.405H233.402" stroke="black" stroke-width="2" stroke-linecap="round" stroke-linejoin="round"/>
    <path d="M93.189 131.783H176.757" stroke="black" stroke-width="2" stroke-linecap="round" stroke-linejoin="round"/>
    <path d="M218.879 131.783H239.689" stroke="black" stroke-width="2" stroke-linecap="round" stroke-linejoin="round"/>
    <path d="M218.879 219.605H239.689" stroke="black" stroke-width="2" stroke-linecap="round" stroke-linejoin="round"/>
    <path d="M218.879 151.598H239.689" stroke="black" stroke-width="2" stroke-linecap="round" stroke-linejoin="round"/>
    <path d="M218.879 239.42H239.689" stroke="black" stroke-width="2" stroke-linecap="round" stroke-linejoin="round"/>
    <path d="M218.879 171.414H239.689" stroke="black" stroke-width="2" stroke-linecap="round" stroke-linejoin="round"/>
    <path d="M218.879 259.236H239.689" stroke="black" stroke-width="2" stroke-linecap="round" stroke-linejoin="round"/>
    <path d="M218.879 141.693H239.689" stroke="black" stroke-width="2" stroke-linecap="round" stroke-linejoin="round"/>
    <path d="M218.879 229.514H239.689" stroke="black" stroke-width="2" stroke-linecap="round" stroke-linejoin="round"/>
    <path d="M218.879 161.506H239.689" stroke="black" stroke-width="2" stroke-linecap="round" stroke-linejoin="round"/>
    <path d="M218.879 249.328H239.689" stroke="black" stroke-width="2" stroke-linecap="round" stroke-linejoin="round"/>
    <path d="M218.879 181.32H239.689" stroke="black" stroke-width="2" stroke-linecap="round" stroke-linejoin="round"/>
    <path d="M218.879 269.145H239.689" stroke="black" stroke-width="2" stroke-linecap="round" stroke-linejoin="round"/>
    <path d="M218.879 191.229H239.689" stroke="black" stroke-width="2" stroke-linecap="round" stroke-linejoin="round"/>
    <path d="M93.189 219.605H176.757" stroke="black" stroke-width="2" stroke-linecap="round" stroke-linejoin="round"/>
    <path d="M93.189 141.693H189.618" stroke="black" stroke-width="2" stroke-linecap="round" stroke-linejoin="round"/>
    <path d="M93.189 229.514H189.618" stroke="black" stroke-width="2" stroke-linecap="round" stroke-linejoin="round"/>
    <path d="M93.189 151.598H198.036" stroke="black" stroke-width="2" stroke-linecap="round" stroke-linejoin="round"/>
    <path d="M93.189 239.42H198.036" stroke="black" stroke-width="2" stroke-linecap="round" stroke-linejoin="round"/>
    <path d="M93.189 161.506H198.036" stroke="black" stroke-width="2" stroke-linecap="round" stroke-linejoin="round"/>
    <path d="M93.189 249.328H198.036" stroke="black" stroke-width="2" stroke-linecap="round" stroke-linejoin="round"/>
    <path d="M93.189 171.414H189.618" stroke="black" stroke-width="2" stroke-linecap="round" stroke-linejoin="round"/>
    <path d="M93.189 259.236H189.618" stroke="black" stroke-width="2" stroke-linecap="round" stroke-linejoin="round"/>
    <path d="M93.189 181.32H181.877" stroke="black" stroke-width="2" stroke-linecap="round" stroke-linejoin="round"/>
    <path d="M93.189 269.145H181.877" stroke="black" stroke-width="2" stroke-linecap="round" stroke-linejoin="round"/>
    <path d="M93.189 191.229H174.759" stroke="black" stroke-width="2" stroke-linecap="round" stroke-linejoin="round"/>
    <path d="M93.189 279.051H174.759" stroke="black" stroke-width="2" stroke-linecap="round" stroke-linejoin="round"/>
    <path d="M317.209 259.847H367.51" stroke="black" stroke-width="2" stroke-linecap="round" stroke-linejoin="round"/>
    <path d="M337.577 173.144H270.058" stroke="black" stroke-width="2" stroke-linecap="round" stroke-linejoin="round"/>
    <path d="M383.012 290.517C383.012 286.489 381.412 282.627 378.563 279.779C375.715 276.929 371.852 275.329 367.825 275.329H224.2C220.173 275.329 216.31 276.929 213.462 279.779C210.615 282.627 209.015 286.489 209.015 290.517V372.545C209.015 376.573 210.615 380.435 213.462 383.283C216.31 386.133 220.173 387.733 224.2 387.733H367.825C371.852 387.733 375.715 386.133 378.565 383.285C381.412 380.435 383.012 376.573 383.012 372.545V290.517Z" stroke="black" stroke-width="2" stroke-linecap="round" stroke-linejoin="round"/>
    <path d="M255.039 295.629H225.521V314.118H255.039V295.629Z" fill="#D5FEC8"/>
    <path d="M255.039 295.629H225.521V314.118H255.039V295.629Z" stroke="black" stroke-width="2" stroke-linecap="round" stroke-linejoin="round"/>
    <path d="M229.52 354.736L240.936 366.153" stroke="black" stroke-width="2" stroke-linecap="round" stroke-linejoin="round"/>
    <path d="M256.556 354.736L267.972 366.153" stroke="black" stroke-width="2" stroke-linecap="round" stroke-linejoin="round"/>
    <path d="M283.592 354.736L295.008 366.153" stroke="black" stroke-width="2" stroke-linecap="round" stroke-linejoin="round"/>
    <path d="M310.628 354.736L322.045 366.153" stroke="black" stroke-width="2" stroke-linecap="round" stroke-linejoin="round"/>
    <path d="M337.664 354.736L349.081 366.153" stroke="black" stroke-width="2" stroke-linecap="round" stroke-linejoin="round"/>
    <path d="M240.936 354.736L229.52 366.153" stroke="black" stroke-width="2" stroke-linecap="round" stroke-linejoin="round"/>
    <path d="M267.972 354.736L256.556 366.153" stroke="black" stroke-width="2" stroke-linecap="round" stroke-linejoin="round"/>
    <path d="M295.008 354.736L283.592 366.153" stroke="black" stroke-width="2" stroke-linecap="round" stroke-linejoin="round"/>
    <path d="M322.045 354.736L310.628 366.153" stroke="black" stroke-width="2" stroke-linecap="round" stroke-linejoin="round"/>
    <path d="M349.081 354.736L337.664 366.153" stroke="black" stroke-width="2" stroke-linecap="round" stroke-linejoin="round"/>
    <path fill-rule="evenodd" clip-rule="evenodd" d="M361.868 292.625L337.372 304.871L361.868 317.119C368.658 309.225 368.951 301.07 361.868 292.625Z" fill="#3755FA"/>
    <path d="M337.372 304.873L361.868 292.626C368.957 301.072 368.658 309.225 361.868 317.121L337.372 304.873Z" stroke="black" stroke-width="2" stroke-linecap="round" stroke-linejoin="round"/>
    <path d="M355.887 155.798C374.203 155.798 389.05 140.95 389.05 122.635C389.05 104.319 374.203 89.4714 355.887 89.4714C337.571 89.4714 322.724 104.319 322.724 122.635C322.724 140.95 337.571 155.798 355.887 155.798Z" stroke="black" stroke-width="2" stroke-linecap="round" stroke-linejoin="round"/>
    <path d="M341.465 125.951L351.449 135.626L369.009 109.398" stroke="black" stroke-width="2" stroke-linecap="round" stroke-linejoin="round"/>
    <path d="M79.39 355.16C95.9922 355.16 109.451 341.702 109.451 325.099C109.451 308.497 95.9922 295.038 79.39 295.038C62.7879 295.038 49.3291 308.497 49.3291 325.099C49.3291 341.702 62.7879 355.16 79.39 355.16Z" fill="#D5FEC8"/>
    <path d="M79.39 355.16C95.9922 355.16 109.451 341.702 109.451 325.099C109.451 308.497 95.9922 295.038 79.39 295.038C62.7879 295.038 49.3291 308.497 49.3291 325.099C49.3291 341.702 62.7879 355.16 79.39 355.16Z" stroke="black" stroke-width="2" stroke-linecap="round" stroke-linejoin="round"/>
    <path d="M87.5652 313.659H76.2222V313.629C74.7402 313.629 73.319 314.216 72.2709 315.265C71.2229 316.313 70.6343 317.734 70.6343 319.217C70.6343 320.697 71.2229 322.12 72.2709 323.167C73.319 324.216 74.7402 324.805 76.2222 324.805C76.2222 324.827 82.4031 324.843 82.4031 324.843C83.9014 324.841 85.3408 325.426 86.4126 326.472C87.4842 327.521 88.1031 328.946 88.1363 330.444C88.1353 331.925 87.5463 333.346 86.4986 334.395C85.451 335.443 84.0304 336.032 82.5484 336.034V336.01H71.2054" stroke="black" stroke-width="2" stroke-linecap="round" stroke-linejoin="round"/>
    <path d="M79.3901 340.852V309.344" stroke="black" stroke-width="2" stroke-linecap="round" stroke-linejoin="round"/>
    <path d="M30.1378 275.329C40.7347 275.329 49.3254 266.739 49.3254 256.142C49.3254 245.545 40.7347 236.954 30.1378 236.954C19.5408 236.954 10.9502 245.545 10.9502 256.142C10.9502 266.739 19.5408 275.329 30.1378 275.329Z" stroke="black" stroke-width="2" stroke-linecap="round" stroke-linejoin="round"/>
    <path d="M35.3573 248.839H28.1197C27.1754 248.839 26.27 249.213 25.6023 249.879C24.9347 250.548 24.5596 251.453 24.5596 252.399C24.5596 253.342 24.9347 254.247 25.6023 254.916C26.27 255.583 27.1754 255.957 28.1197 255.957L32.0639 255.983C33.0212 255.981 33.9408 256.355 34.625 257.025C35.3094 257.696 35.7036 258.605 35.7235 259.565C35.7229 260.51 35.347 261.415 34.6783 262.084C34.0097 262.753 33.103 263.129 32.1574 263.131L24.9198 263.115" stroke="black" stroke-width="2" stroke-linecap="round" stroke-linejoin="round"/>
    <path d="M30.1377 266.197V246.086" stroke="black" stroke-width="2" stroke-linecap="round" stroke-linejoin="round"/>
    <path d="M289.803 64.989L301.219 76.4056" stroke="black" stroke-width="2" stroke-linecap="round" stroke-linejoin="round"/>
    <path d="M301.219 64.989L289.801 76.4056" stroke="black" stroke-width="2" stroke-linecap="round" stroke-linejoin="round"/>
    <path d="M98.0327 17.9772L109.455 29.3937" stroke="black" stroke-width="2" stroke-linecap="round" stroke-linejoin="round"/>
    <path d="M109.455 17.9772L98.0327 29.3937" stroke="black" stroke-width="2" stroke-linecap="round" stroke-linejoin="round"/>
    <path d="M27.5107 122.633V138.78" stroke="black" stroke-width="2" stroke-linecap="round" stroke-linejoin="round"/>
    <path d="M35.5823 130.707H19.4375" stroke="black" stroke-width="2" stroke-linecap="round" stroke-linejoin="round"/>
    <path d="M333.957 23.6842C337.111 23.6842 339.666 21.128 339.666 17.9749C339.666 14.8218 337.111 12.2656 333.957 12.2656C330.805 12.2656 328.248 14.8218 328.248 17.9749C328.248 21.128 330.805 23.6842 333.957 23.6842Z" stroke="black" stroke-width="2" stroke-linecap="round" stroke-linejoin="round"/>
</svg>
