<svg width="342" height="382" viewBox="0 0 342 382" fill="none" xmlns="http://www.w3.org/2000/svg">
    <path d="M171.868 350.765L119.688 233.964C119.239 232.973 118.414 232.199 117.396 231.814C116.378 231.429 115.249 231.463 114.255 231.908C113.261 232.352 112.483 233.171 112.091 234.187C111.699 235.203 111.725 236.333 112.164 237.329L164.344 354.13C164.793 355.122 165.617 355.895 166.635 356.28C167.654 356.665 168.783 356.632 169.776 356.186C170.771 355.742 171.549 354.923 171.941 353.907C172.332 352.891 172.306 351.762 171.868 350.765Z" fill="#D5FEC8"/>
    <path d="M211.949 340.594L168.465 221.107C168.082 220.088 167.312 219.262 166.323 218.809C165.333 218.355 164.205 218.311 163.183 218.685C162.162 219.059 161.329 219.821 160.866 220.806C160.404 221.791 160.349 222.919 160.714 223.944L204.198 343.434C204.385 343.943 204.669 344.409 205.035 344.809C205.778 345.613 206.808 346.09 207.901 346.135C208.995 346.181 210.061 345.791 210.868 345.052C211.467 344.498 211.89 343.779 212.082 342.986C212.274 342.193 212.228 341.361 211.949 340.594Z" fill="#D5FEC8"/>
    <path d="M249.382 323.2L214.293 200.154C213.964 199.134 213.252 198.282 212.306 197.777C211.361 197.272 210.256 197.155 209.226 197.449C208.195 197.744 207.32 198.427 206.784 199.355C206.247 200.283 206.093 201.383 206.353 202.423L241.446 325.468C241.757 326.51 242.465 327.387 243.418 327.909C244.371 328.431 245.491 328.556 246.536 328.258C247.581 327.959 248.466 327.261 248.998 326.314C249.531 325.367 249.669 324.248 249.382 323.2Z" fill="#D5FEC8"/>
    <path d="M224.085 115.651C236.58 108.705 250.754 105.355 265.036 105.971C265.374 105.976 265.708 105.902 266.013 105.755C266.317 105.608 266.583 105.392 266.788 105.123C266.994 104.855 267.135 104.543 267.198 104.211C267.262 103.879 267.247 103.536 267.155 103.211C266.184 99.852 265.678 97.8779 264.733 94.5506C255.432 96.2521 245.942 97.7346 237.207 101.736C245.072 96.2142 253.315 90.2781 262.578 86.7996C261.633 83.3967 261.054 81.3589 260.12 77.952C259.992 77.4609 259.693 77.0312 259.278 76.7391C258.863 76.4469 258.357 76.3112 257.852 76.356C257.517 76.3845 257.193 76.4908 256.906 76.6665C242.182 85.526 229.88 97.8929 221.098 112.664C220.919 112.975 220.82 113.325 220.809 113.684C220.797 114.043 220.875 114.399 221.034 114.721C221.193 115.043 221.429 115.321 221.721 115.53C222.013 115.739 222.352 115.873 222.708 115.919C223.184 115.983 223.668 115.889 224.085 115.651Z" fill="#D5FEC8"/>
    <path d="M172.435 18.7754C166.045 11.2513 142.603 19.9874 114.285 39.0058L116.966 42.148L54.7642 95.0422L52.0796 91.898C28.7966 116.773 16.385 138.52 22.7749 146.046C35.7517 161.19 98.0964 114.148 113.489 101.052C131.737 85.53 184.811 33.2149 172.435 18.7754Z" fill="#3755FA"/>
    <path d="M116.966 42.144L54.7643 95.0043L49.1685 88.4254L111.37 35.5272L116.966 42.144Z" fill="#3755FA"/>
    <path d="M86.2998 174.031L84.2202 175.581L92.5384 186.775L86.2998 174.031Z" fill="#3755FA"/>
    <path d="M81.4598 195.018L83.5016 180.724C74.8391 186.907 69.3288 192.664 68.0731 197.286C65.5159 206.683 80.5703 207.571 90.3074 207.037L81.4598 195.018Z" fill="#3755FA"/>
    <path d="M213.423 161.441L208.772 138.066C215.427 138.225 220.33 139.393 222.923 141.614C229.297 147.085 220.006 156.239 213.423 161.441Z" fill="#3755FA"/>
    <path d="M130.802 173.124L121.312 160.231C123.391 159.323 125.546 158.416 127.701 157.546L130.802 173.124Z" fill="#3755FA"/>
    <path d="M9.99517 242.963C10.1865 243.492 10.2717 244.053 10.246 244.615C10.2203 245.177 10.0842 245.728 9.84549 246.238C9.60674 246.747 9.27003 247.204 8.85456 247.583C8.4391 247.962 7.95302 248.256 7.42408 248.447C6.89515 248.639 6.33372 248.724 5.77185 248.698C5.20997 248.672 4.65865 248.536 4.14938 248.298C3.6401 248.059 3.18284 247.722 2.80369 247.307C2.42454 246.891 2.13094 246.405 1.93965 245.876C1.55331 244.808 1.60715 243.63 2.08932 242.602C2.57149 241.573 3.4425 240.778 4.51073 240.392C5.57896 240.005 6.7569 240.059 7.78544 240.541C8.81397 241.024 9.60883 241.895 9.99517 242.963Z" stroke="black" stroke-width="2" stroke-linecap="round" stroke-linejoin="round"/>
    <path d="M224.963 144.943L275.095 320.893C287.157 353.981 155.232 402 143.168 368.906L68.2446 201.396" stroke="black" stroke-width="2" stroke-linecap="round" stroke-linejoin="round"/>
    <path d="M116.966 42.144L54.7643 95.0043L49.1685 88.4254L111.37 35.5272L116.966 42.144Z" stroke="black" stroke-width="2" stroke-linecap="round" stroke-linejoin="round"/>
    <path d="M116.966 42.1439L129.292 56.6252L138.291 48.9875" stroke="black" stroke-width="2" stroke-linecap="round" stroke-linejoin="round"/>
    <path d="M54.7642 95.0044L66.5231 108.845L57.6755 116.369" stroke="black" stroke-width="2" stroke-linecap="round" stroke-linejoin="round"/>
    <path d="M114.285 39.0058C142.601 19.9853 166.065 11.2671 172.473 18.7754C185.308 33.8198 129.533 87.4045 113.489 101.052C98.0986 114.144 35.72 161.216 22.7771 146.048C16.3772 138.542 28.7888 116.785 52.0798 91.898" stroke="black" stroke-width="2" stroke-linecap="round" stroke-linejoin="round"/>
    <path d="M22.8127 146.014L36.6154 162.234C45.3495 172.557 85.9972 152.404 127.326 117.276C168.612 82.1469 195.045 45.2822 186.273 34.9979L172.473 18.7754" stroke="black" stroke-width="2" stroke-linecap="round" stroke-linejoin="round"/>
    <path d="M213.423 161.441L207.336 130.703C206.855 128.303 205.444 126.192 203.41 124.831C201.376 123.47 198.885 122.971 196.484 123.443L132.846 136.03C130.446 136.511 128.335 137.923 126.974 139.957C125.613 141.992 125.114 144.482 125.586 146.884L130.802 173.124" stroke="black" stroke-width="2" stroke-linecap="round" stroke-linejoin="round"/>
    <path d="M127.326 139.435L170.545 159.399L202.912 124.536" stroke="black" stroke-width="2" stroke-linecap="round" stroke-linejoin="round"/>
    <path d="M224.085 115.651C236.58 108.705 250.754 105.355 265.036 105.971C265.374 105.976 265.708 105.902 266.013 105.755C266.317 105.608 266.583 105.392 266.788 105.123C266.994 104.855 267.135 104.543 267.198 104.211C267.262 103.879 267.247 103.536 267.155 103.211C266.184 99.852 265.678 97.8779 264.733 94.5506C255.432 96.2521 245.942 97.7346 237.207 101.736C245.072 96.2142 253.315 90.2781 262.578 86.7996C261.633 83.3967 261.054 81.3589 260.12 77.952C259.992 77.4609 259.693 77.0312 259.278 76.7391C258.863 76.4469 258.357 76.3112 257.852 76.356C257.517 76.3845 257.193 76.4908 256.906 76.6665C242.182 85.526 229.88 97.8929 221.098 112.664C220.919 112.975 220.82 113.325 220.809 113.684C220.797 114.043 220.875 114.399 221.034 114.721C221.193 115.043 221.429 115.321 221.721 115.53C222.013 115.739 222.352 115.873 222.708 115.919C223.184 115.983 223.668 115.889 224.085 115.651Z" stroke="black" stroke-width="2" stroke-linecap="round" stroke-linejoin="round"/>
    <path d="M237.207 101.736C273.696 81.5817 311.588 82.5966 328.598 100.186C359.198 131.827 327.802 211.843 258.456 278.888C189.111 345.933 108.116 374.629 77.4899 342.976C58.5431 323.393 63.3469 285.236 86.224 243.152" stroke="black" stroke-width="2" stroke-linecap="round" stroke-linejoin="round"/>
    <path d="M240.27 1.94995L247.794 22.7096" stroke="black" stroke-width="2" stroke-linecap="round" stroke-linejoin="round"/>
    <path d="M254.411 8.56665L233.653 16.0908" stroke="black" stroke-width="2" stroke-linecap="round" stroke-linejoin="round"/>
    <path d="M333.211 285.35L302.696 296.392" stroke="black" stroke-width="2" stroke-linecap="round" stroke-linejoin="round"/>
    <path d="M90.3077 207.041L81.4224 195.018L84.2203 175.581L115.567 152.479L146.609 194.564" stroke="black" stroke-width="2" stroke-linecap="round" stroke-linejoin="round"/>
    <path d="M81.3843 194.98L92.5382 186.775L84.22 175.581" stroke="black" stroke-width="2" stroke-linecap="round" stroke-linejoin="round"/>
    <path d="M92.5385 186.775L86.2998 174.031" stroke="black" stroke-width="2" stroke-linecap="round" stroke-linejoin="round"/>
    <path d="M208.81 138.066C214.551 138.203 223.87 139.23 224.957 144.904C227.066 155.924 195.704 176.744 153.53 192.1C118.534 204.836 86.8369 209.915 73.9178 205.678C67.8603 203.688 66.1449 199.644 69.4781 194.09C71.8661 190.11 76.7158 185.533 83.5017 180.682" stroke="black" stroke-width="2" stroke-linecap="round" stroke-linejoin="round"/>
    <path d="M130.804 173.124L121.314 160.268" stroke="black" stroke-width="2" stroke-linecap="round" stroke-linejoin="round"/>
    <path d="M121.314 160.268C123.394 159.361 125.549 158.453 127.704 157.584" stroke="black" stroke-width="2" stroke-linecap="round" stroke-linejoin="round"/>
    <path d="M127.704 157.584L130.804 173.124" stroke="black" stroke-width="2" stroke-linecap="round" stroke-linejoin="round"/>
    <path d="M171.868 350.765L119.688 233.964C119.238 232.973 118.414 232.199 117.396 231.814C116.378 231.429 115.248 231.463 114.255 231.908C113.262 232.353 112.484 233.172 112.092 234.188C111.701 235.203 111.726 236.332 112.164 237.329L164.343 354.13C164.793 355.122 165.617 355.895 166.635 356.28C167.653 356.665 168.783 356.632 169.776 356.186C170.77 355.742 171.548 354.923 171.94 353.907C172.332 352.891 172.306 351.762 171.868 350.765Z" stroke="black" stroke-width="2" stroke-linejoin="round"/>
    <path d="M211.948 340.594L168.465 221.107C168.081 220.088 167.311 219.262 166.322 218.809C165.333 218.355 164.205 218.311 163.183 218.685C162.161 219.059 161.328 219.821 160.866 220.806C160.403 221.791 160.349 222.919 160.714 223.944L204.197 343.434C204.479 344.2 204.981 344.865 205.64 345.346C206.299 345.827 207.085 346.103 207.9 346.138C208.579 346.166 209.253 346.027 209.864 345.732C210.476 345.437 211.005 344.996 211.405 344.447C211.805 343.899 212.064 343.261 212.159 342.589C212.254 341.917 212.181 341.232 211.948 340.594Z" stroke="black" stroke-width="2" stroke-linejoin="round"/>
    <path d="M249.382 323.2L214.293 200.154C213.964 199.134 213.252 198.282 212.306 197.777C211.361 197.272 210.256 197.155 209.226 197.449C208.195 197.744 207.32 198.427 206.784 199.355C206.247 200.283 206.093 201.383 206.353 202.423L241.446 325.468C241.785 326.476 242.498 327.315 243.439 327.81C244.38 328.305 245.476 328.418 246.498 328.126C247.521 327.834 248.391 327.159 248.928 326.241C249.465 325.324 249.628 324.234 249.382 323.2Z" stroke="black" stroke-width="2" stroke-linejoin="round"/>
</svg>
