<svg width="400" height="400" viewBox="0 0 400 400" fill="none" xmlns="http://www.w3.org/2000/svg">
    <path d="M361.918 303.888C374.726 303.888 385.109 293.504 385.109 280.696C385.109 267.889 374.726 257.505 361.918 257.505C349.11 257.505 338.727 267.889 338.727 280.696C338.727 293.504 349.11 303.888 361.918 303.888Z" stroke="black" stroke-width="2" stroke-linecap="round" stroke-linejoin="round"/>
    <path d="M72.2935 112.414V104.082" stroke="black" stroke-width="2" stroke-linecap="round" stroke-linejoin="round"/>
    <path d="M72.2935 132.274V123.944" stroke="black" stroke-width="2" stroke-linecap="round" stroke-linejoin="round"/>
    <path d="M67.3027 121.061L60.0869 125.228" stroke="black" stroke-width="2" stroke-linecap="round" stroke-linejoin="round"/>
    <path d="M84.5024 111.13L77.2866 115.295" stroke="black" stroke-width="2" stroke-linecap="round" stroke-linejoin="round"/>
    <path d="M77.2866 121.061L84.5024 125.228" stroke="black" stroke-width="2" stroke-linecap="round" stroke-linejoin="round"/>
    <path d="M60.0869 111.13L67.3027 115.295" stroke="black" stroke-width="2" stroke-linecap="round" stroke-linejoin="round"/>
    <path d="M15.5786 173.951C17.8778 173.951 19.7417 172.087 19.7417 169.788C19.7417 167.489 17.8778 165.625 15.5786 165.625C13.2794 165.625 11.4155 167.489 11.4155 169.788C11.4155 172.087 13.2794 173.951 15.5786 173.951Z" stroke="black" stroke-width="2" stroke-linecap="round" stroke-linejoin="round"/>
    <path d="M206.495 324.89V341.602" stroke="black" stroke-width="2" stroke-linecap="round" stroke-linejoin="round"/>
    <path d="M214.851 333.246H198.139" stroke="black" stroke-width="2" stroke-linecap="round" stroke-linejoin="round"/>
    <path d="M381.583 161.563V177.979" stroke="black" stroke-width="2" stroke-linecap="round" stroke-linejoin="round"/>
    <path d="M389.792 169.77H373.376" stroke="black" stroke-width="2" stroke-linecap="round" stroke-linejoin="round"/>
    <path d="M286.356 40.2149C288.748 40.2149 290.688 38.2755 290.688 35.8827C290.688 33.4901 288.748 31.5507 286.356 31.5507C283.964 31.5507 282.024 33.4901 282.024 35.8827C282.024 38.2755 283.964 40.2149 286.356 40.2149Z" stroke="black" stroke-width="2" stroke-linecap="round" stroke-linejoin="round"/>
    <path d="M184.876 185.419C184.855 184.497 185.037 183.582 185.409 182.738C185.781 181.893 186.334 181.141 187.028 180.534C187.722 179.927 188.541 179.479 189.427 179.223C190.313 178.967 191.244 178.908 192.155 179.051L224.264 185.672L243.117 92.1596L267.049 96.9833L262.183 31.8228L93.6543 44.4035L101.547 150.073L165.342 134.694L184.563 214.434C184.677 202.645 184.784 192.159 184.876 185.419Z" fill="#D5FEC8"/>
    <path d="M93.6543 44.4035L110.279 65.7303L248.912 55.3783L262.183 31.8187" stroke="black" stroke-width="2" stroke-linecap="round" stroke-linejoin="round"/>
    <path d="M183.167 120.37C189.788 120.37 195.156 115.002 195.156 108.381C195.156 101.759 189.788 96.3909 183.167 96.3909C176.545 96.3909 171.177 101.759 171.177 108.381C171.177 115.002 176.545 120.37 183.167 120.37Z" stroke="black" stroke-width="2" stroke-linecap="round" stroke-linejoin="round"/>
    <path d="M182.273 96.4221L179.594 60.5543" stroke="black" stroke-width="2" stroke-linecap="round" stroke-linejoin="round"/>
    <path d="M267.049 96.9793L262.183 31.8187L93.6543 44.4035L101.547 150.08" stroke="black" stroke-width="2" stroke-linecap="round" stroke-linejoin="round"/>
    <path d="M243.117 92.1565L209.347 259.65L337.678 285.522L371.447 118.03L243.117 92.1565Z" stroke="black" stroke-width="2" stroke-linecap="round" stroke-linejoin="round"/>
    <path d="M330.124 197.99L249.979 181.831" stroke="black" stroke-width="2" stroke-linecap="round" stroke-linejoin="round"/>
    <path d="M334.175 178.66L254.032 162.501" stroke="black" stroke-width="2" stroke-linecap="round" stroke-linejoin="round"/>
    <path d="M381.498 204.664L298.005 187.444C295.992 187.07 293.91 187.403 292.113 188.387C290.316 189.371 288.915 190.946 288.145 192.844C287.417 194.612 286.579 196.52 285.779 198.357L192.157 179.054C191.246 178.911 190.315 178.97 189.429 179.226C188.543 179.482 187.724 179.93 187.03 180.537C186.336 181.144 185.783 181.896 185.411 182.74C185.039 183.584 184.857 184.5 184.878 185.422C184.784 192.162 184.679 202.645 184.563 214.443L204.016 295.144L334.777 322.08C337.073 322.488 339.439 322.086 341.473 320.942C343.505 319.798 345.077 317.983 345.921 315.808L387.609 217.303C388.184 216.087 388.481 214.756 388.477 213.409C388.471 212.063 388.162 210.734 387.577 209.522C386.99 208.31 386.141 207.246 385.088 206.404C384.037 205.564 382.809 204.969 381.498 204.664Z" fill="#3755FA"/>
    <path d="M342.372 95.9433L333.286 138.376C332.751 141.317 333.382 144.351 335.043 146.835C336.707 149.319 339.272 151.059 342.193 151.685C345.117 152.311 348.169 151.775 350.705 150.19C353.238 148.605 355.057 146.096 355.773 143.194L366.718 92.0727C366.927 91.1605 366.953 90.216 366.792 89.2939C366.632 88.3719 366.292 87.4907 365.789 86.7017C365.285 85.9125 364.631 85.2313 363.862 84.6974C363.094 84.1637 362.227 83.7877 361.311 83.5919C360.398 83.3959 359.453 83.3838 358.533 83.5561C357.612 83.7284 356.736 84.0819 355.954 84.5959C355.172 85.1099 354.499 85.774 353.978 86.5499C353.455 87.3258 353.091 88.198 352.907 89.1156L343.083 135.001" stroke="black" stroke-width="2" stroke-linecap="round" stroke-linejoin="round"/>
    <path d="M381.498 204.664L298.005 187.444C295.992 187.07 293.91 187.403 292.113 188.387C290.316 189.371 288.915 190.946 288.145 192.844C287.417 194.612 286.579 196.52 285.779 198.357L192.157 179.054C191.246 178.911 190.315 178.97 189.429 179.226C188.543 179.482 187.724 179.93 187.03 180.537C186.336 181.144 185.783 181.896 185.411 182.74C185.039 183.584 184.857 184.5 184.878 185.422C184.784 192.162 184.679 202.645 184.563 214.443L204.016 295.144L334.777 322.08C337.073 322.488 339.439 322.086 341.473 320.942C343.505 319.798 345.077 317.983 345.921 315.808L387.609 217.303C388.186 216.087 388.481 214.756 388.477 213.409C388.471 212.063 388.162 210.734 387.577 209.522C386.99 208.31 386.141 207.246 385.088 206.404C384.037 205.564 382.809 204.969 381.498 204.664Z" stroke="black" stroke-width="2" stroke-linecap="round" stroke-linejoin="round"/>
    <path d="M44.6148 179.435L41.0547 164.662L165.342 134.702L204.79 298.354L186.512 302.762" stroke="black" stroke-width="2" stroke-linecap="round" stroke-linejoin="round"/>
    <path d="M109.177 179.505L144.175 207.355L171.794 321.941L190.074 317.533L150.626 153.882L26.3369 183.842L29.897 198.615L109.177 179.505Z" fill="#3755FA"/>
    <path d="M171.794 321.941L190.074 317.533L150.626 153.882L26.3369 183.842L29.897 198.615" stroke="black" stroke-width="2" stroke-linecap="round" stroke-linejoin="round"/>
    <path d="M109.176 179.505L11.6187 203.021L51.0664 366.674L175.356 336.715L144.175 207.355L109.176 179.505Z" stroke="black" stroke-width="2" stroke-linecap="round" stroke-linejoin="round"/>
    <path d="M144.174 207.355L117.443 213.799L109.176 179.505" stroke="black" stroke-width="2" stroke-linecap="round" stroke-linejoin="round"/>
    <path d="M44.834 255.899L130.432 235.265" stroke="black" stroke-width="2" stroke-linecap="round" stroke-linejoin="round"/>
    <path d="M48.6665 271.797L134.264 251.163" stroke="black" stroke-width="2" stroke-linecap="round" stroke-linejoin="round"/>
    <path d="M52.499 287.695L138.097 267.063" stroke="black" stroke-width="2" stroke-linecap="round" stroke-linejoin="round"/>
    <path d="M143.398 288.865L57.7529 309.293L66.2009 344.713L151.846 324.285L143.398 288.865Z" fill="#D5FEC8"/>
    <path d="M143.398 288.865L57.7529 309.293L66.2009 344.713L151.846 324.285L143.398 288.865Z" stroke="black" stroke-width="2" stroke-linecap="round" stroke-linejoin="round"/>
    <path d="M74.9165 318.2L132.039 304.431" stroke="black" stroke-width="2" stroke-linecap="round" stroke-linejoin="round"/>
    <path d="M77.4102 328.538L134.531 314.769" stroke="black" stroke-width="2" stroke-linecap="round" stroke-linejoin="round"/>
</svg>
