<svg width="400" height="400" viewBox="0 0 400 400" fill="none" xmlns="http://www.w3.org/2000/svg">
    <path d="M50.4555 216.038C46.0596 217.275 41.803 215.821 40.9493 212.796C40.0955 209.771 42.9651 206.308 47.361 205.069L46.2088 200.969C39.0209 202.997 34.4061 208.929 35.8966 214.223C37.3872 219.516 44.4258 222.161 51.6176 220.133L50.4555 216.038Z" stroke="black" stroke-width="2" stroke-linecap="round" stroke-linejoin="round"/>
    <path d="M44.6428 195.423L52.764 224.208C53.1342 225.524 60.3519 224.632 68.883 222.23C77.4141 219.828 84.0309 216.808 83.6608 215.492L75.5416 186.707" stroke="black" stroke-width="2" stroke-linecap="round" stroke-linejoin="round"/>
    <path d="M59.4225 188.687C67.9537 186.281 75.1714 185.395 75.5415 186.711C75.9117 188.026 69.2969 191.045 60.7638 193.449C52.2307 195.853 45.0129 196.74 44.6448 195.427C44.2766 194.114 50.8894 191.095 59.4225 188.687Z" stroke="black" stroke-width="2" stroke-linecap="round" stroke-linejoin="round"/>
    <path d="M25.4851 146.423C29.3389 146.423 33.0349 144.892 35.76 142.167C38.4851 139.442 40.0161 135.746 40.0161 131.892C40.0161 128.038 38.4851 124.342 35.76 121.617C33.0349 118.892 29.3389 117.361 25.4851 117.361C21.6312 117.361 17.9352 118.892 15.2101 121.617C12.485 124.342 10.9541 128.038 10.9541 131.892C10.9541 135.746 12.485 139.442 15.2101 142.167C17.9352 144.892 21.6312 146.423 25.4851 146.423Z" fill="#3755FA"/>
    <path d="M25.4851 146.423C29.3389 146.423 33.0349 144.892 35.76 142.167C38.4851 139.442 40.0161 135.746 40.0161 131.892C40.0161 128.038 38.4851 124.342 35.76 121.617C33.0349 118.892 29.3389 117.361 25.4851 117.361C21.6312 117.361 17.9352 118.892 15.2101 121.617C12.485 124.342 10.9541 128.038 10.9541 131.892C10.9541 135.746 12.485 139.442 15.2101 142.167C17.9352 144.892 21.6312 146.423 25.4851 146.423Z" stroke="black" stroke-width="2" stroke-linecap="round" stroke-linejoin="round"/>
    <path d="M17.3221 165.376C18.7567 165.376 20.1324 164.806 21.1468 163.792C22.1611 162.777 22.731 161.402 22.731 159.967C22.731 158.533 22.1611 157.157 21.1468 156.143C20.1324 155.128 18.7567 154.558 17.3221 154.558C15.8876 154.558 14.5119 155.128 13.4975 156.143C12.4832 157.157 11.9133 158.533 11.9133 159.967C11.9133 161.402 12.4832 162.777 13.4975 163.792C14.5119 164.806 15.8876 165.376 17.3221 165.376Z" fill="#3755FA"/>
    <path d="M17.3221 165.376C18.7567 165.376 20.1324 164.806 21.1468 163.792C22.1611 162.777 22.731 161.402 22.731 159.967C22.731 158.533 22.1611 157.157 21.1468 156.143C20.1324 155.128 18.7567 154.558 17.3221 154.558C15.8876 154.558 14.5119 155.128 13.4975 156.143C12.4832 157.157 11.9133 158.533 11.9133 159.967C11.9133 161.402 12.4832 162.777 13.4975 163.792C14.5119 164.806 15.8876 165.376 17.3221 165.376Z" stroke="black" stroke-width="2" stroke-linecap="round" stroke-linejoin="round"/>
    <path d="M56.1907 187.234C50.8953 184.174 50.6008 172.755 49.3371 165.999C48.77 162.968 47.6396 159.655 44.8715 158.292C39.2478 155.52 29.2839 163.187 31.059 170.261C33.248 178.988 47.759 177.447 50.9729 185.64C52.0694 188.426 44.6427 192.239 44.6427 195.427C45.0128 196.74 52.2306 195.851 60.7617 193.449C69.2928 191.047 75.9116 188.026 75.5414 186.711C72.6216 188.422 69.3165 189.368 65.9333 189.459C62.5501 189.551 59.1987 188.785 56.1907 187.234Z" fill="#3755FA"/>
    <path d="M56.1907 187.234C50.8953 184.174 50.6008 172.755 49.3371 165.999C48.77 162.968 47.6396 159.655 44.8715 158.292C39.2478 155.52 29.2839 163.187 31.059 170.261C33.248 178.988 47.759 177.447 50.9729 185.64C52.0694 188.426 44.6427 192.239 44.6427 195.427C45.0128 196.74 52.2306 195.851 60.7617 193.449C69.2928 191.047 75.9116 188.026 75.5414 186.711C72.6216 188.422 69.3165 189.368 65.9333 189.459C62.5501 189.551 59.1987 188.785 56.1907 187.234Z" stroke="black" stroke-width="2" stroke-linecap="round" stroke-linejoin="round"/>
    <path d="M155.854 329.479V361.055C155.854 362.305 156.351 363.504 157.235 364.388C158.119 365.272 159.318 365.769 160.568 365.769C161.819 365.769 163.018 365.272 163.902 364.388C164.786 363.504 165.283 362.305 165.283 361.055V333.344" stroke="black" stroke-width="2" stroke-linecap="round" stroke-linejoin="round"/>
    <path d="M274.928 145.866L230.198 160.922" stroke="black" stroke-width="2" stroke-linecap="round" stroke-linejoin="round"/>
    <path d="M348.783 263.421C360.55 254.736 369.276 242.557 373.717 228.622C378.159 214.686 378.088 199.705 373.516 185.811C367.767 168.764 355.521 154.675 339.439 146.608" stroke="black" stroke-width="2" stroke-linecap="round" stroke-linejoin="round"/>
    <path d="M244.938 302.206L268.892 294.143" stroke="black" stroke-width="2" stroke-linecap="round" stroke-linejoin="round"/>
    <path d="M115.425 201.606C102.038 209.789 91.8065 222.252 86.387 236.976C80.9675 251.7 80.678 267.823 85.5652 282.732C96.6137 315.567 130.43 334.472 164.272 328.502" stroke="black" stroke-width="2" stroke-linecap="round" stroke-linejoin="round"/>
    <path d="M84.8269 280.406L57.3769 302.286C56.6487 302.868 56.109 303.653 55.8257 304.541C55.5424 305.429 55.5282 306.381 55.7849 307.277C55.9555 307.872 56.242 308.428 56.6279 308.912C57.0138 309.396 57.4915 309.8 58.0336 310.099C58.5751 310.399 59.1707 310.59 59.7861 310.659C60.4015 310.729 61.0245 310.677 61.6196 310.505C62.2146 310.334 62.7698 310.047 63.2533 309.661L88.3273 289.679C86.9379 286.677 85.768 283.578 84.8269 280.406Z" stroke="black" stroke-width="2" stroke-linecap="round" stroke-linejoin="round"/>
    <path d="M387.79 271.865L364.651 246.928C362.842 249.547 360.858 252.04 358.715 254.393L380.879 278.273C381.731 279.188 382.91 279.729 384.159 279.777C385.091 279.813 386.013 279.57 386.807 279.081C387.602 278.592 388.233 277.878 388.62 277.029C389.009 276.182 389.138 275.238 388.99 274.317C388.843 273.396 388.425 272.54 387.79 271.857V271.865Z" stroke="black" stroke-width="2" stroke-linecap="round" stroke-linejoin="round"/>
    <path d="M374.006 293.876L389.05 308.923" stroke="black" stroke-width="2" stroke-linecap="round" stroke-linejoin="round"/>
    <path d="M374.006 308.923L389.05 293.876" stroke="black" stroke-width="2" stroke-linecap="round" stroke-linejoin="round"/>
    <path d="M35.6182 257.364H56.8933" stroke="black" stroke-width="2" stroke-linecap="round" stroke-linejoin="round"/>
    <path d="M46.2566 268.002V246.725" stroke="black" stroke-width="2" stroke-linecap="round" stroke-linejoin="round"/>
    <path d="M253.573 56.9985H274.85" stroke="black" stroke-width="2" stroke-linecap="round" stroke-linejoin="round"/>
    <path d="M264.211 67.6372V46.3601" stroke="black" stroke-width="2" stroke-linecap="round" stroke-linejoin="round"/>
    <path d="M304.515 42.4775H317.545" stroke="black" stroke-width="2" stroke-linecap="round" stroke-linejoin="round"/>
    <path d="M311.03 48.9929V35.9644" stroke="black" stroke-width="2" stroke-linecap="round" stroke-linejoin="round"/>
    <path d="M217.588 198.667L237.918 191.841L217.584 110.396L201.047 115.95C207.592 142.318 212.006 165.886 217.588 198.665V198.667Z" fill="#D5FEC8"/>
    <path d="M137.345 137.341L107.73 147.291L128.062 228.726L154.146 219.97C148.567 187.188 144.001 163.673 137.345 137.341Z" fill="#D5FEC8"/>
    <path d="M201.047 115.95L217.584 110.398H205.789L200.131 112.297" stroke="black" stroke-width="2" stroke-linecap="round" stroke-linejoin="round"/>
    <path d="M136.414 133.693L101.404 145.45L120.772 223.032C121.608 226.378 124.094 228.165 128.066 232.471V228.726L107.73 147.287L137.345 137.337" stroke="black" stroke-width="2" stroke-linecap="round" stroke-linejoin="round"/>
    <path d="M217.584 110.396L237.918 191.837" stroke="black" stroke-width="2" stroke-linecap="round" stroke-linejoin="round"/>
    <path d="M230.242 272.315L282.549 254.751" stroke="black" stroke-width="2" stroke-linecap="round" stroke-linejoin="round"/>
    <path d="M206.422 280.313L211.904 278.472" stroke="black" stroke-width="2" stroke-linecap="round" stroke-linejoin="round"/>
    <path d="M128.062 228.726C128.062 232.602 127.634 236.952 131.554 241.312L149.637 261.411" stroke="black" stroke-width="2" stroke-linecap="round" stroke-linejoin="round"/>
    <path d="M167.477 232.791L140.013 242.013L128.062 228.726L155.528 219.504L167.477 232.791Z" fill="#3755FA"/>
    <path d="M167.477 232.791L140.013 242.013L128.062 228.726L155.528 219.504L167.477 232.791Z" stroke="black" stroke-width="2" stroke-linecap="round" stroke-linejoin="round"/>
    <path d="M258.902 215.17L249.868 205.124L222.404 214.348L234.354 227.635L256.681 220.137" stroke="black" stroke-width="2" stroke-linecap="round" stroke-linejoin="round"/>
    <path d="M198.408 257.008L200.563 256.283L200.535 256.166C200.077 254.042 200.481 251.822 201.659 249.996C202.836 248.169 204.69 246.885 206.814 246.425C209.408 245.836 212.062 245.545 214.722 245.559L206.895 236.857L189.682 242.638C193.234 247.006 196.17 251.841 198.408 257.008Z" fill="#3755FA"/>
    <path d="M214.716 245.559L206.89 236.857L189.676 242.638" stroke="black" stroke-width="2" stroke-linecap="round" stroke-linejoin="round"/>
    <path d="M198.408 257.008L200.563 256.283L200.536 256.166" stroke="black" stroke-width="2" stroke-linecap="round" stroke-linejoin="round"/>
    <path d="M194.942 223.57L167.478 232.791L155.528 219.504L182.99 210.28L194.942 223.57Z" stroke="black" stroke-width="2" stroke-linecap="round" stroke-linejoin="round"/>
    <path d="M222.403 214.348L194.941 223.57L182.99 210.28L210.453 201.059L222.403 214.348Z" stroke="black" stroke-width="2" stroke-linecap="round" stroke-linejoin="round"/>
    <path d="M249.868 205.124L222.404 214.348L210.454 201.059L237.918 191.837L249.868 205.124Z" stroke="black" stroke-width="2" stroke-linecap="round" stroke-linejoin="round"/>
    <path d="M175.227 241.408L167.478 232.791L140.014 242.013L151.964 255.3L155.39 254.15" stroke="black" stroke-width="2" stroke-linecap="round" stroke-linejoin="round"/>
    <path d="M171.264 248.821L173.826 247.961" stroke="black" stroke-width="2" stroke-linecap="round" stroke-linejoin="round"/>
    <path d="M189.676 242.638L206.889 236.857L194.942 223.57L167.478 232.791L175.227 241.408" stroke="black" stroke-width="2" stroke-linecap="round" stroke-linejoin="round"/>
    <path d="M234.353 227.635L206.889 236.857L194.941 223.57L222.403 214.348L234.353 227.635Z" stroke="black" stroke-width="2" stroke-linecap="round" stroke-linejoin="round"/>
    <path d="M182.819 262.241L181.252 262.767" stroke="black" stroke-width="2" stroke-linecap="round" stroke-linejoin="round"/>
    <path d="M165.348 268.108L163.915 268.589L151.963 255.3" stroke="black" stroke-width="2" stroke-linecap="round" stroke-linejoin="round"/>
    <path d="M224.38 248.283L246.303 240.922L234.353 227.635L206.889 236.857L214.716 245.559" stroke="black" stroke-width="2" stroke-linecap="round" stroke-linejoin="round"/>
    <path d="M256.681 220.137L234.354 227.635L246.303 240.923L248.433 240.208" stroke="black" stroke-width="2" stroke-linecap="round" stroke-linejoin="round"/>
    <path d="M204.167 272.372L214.187 269.009" stroke="black" stroke-width="2" stroke-linecap="round" stroke-linejoin="round"/>
    <path d="M231.076 263.338L258.255 254.21L246.303 240.922" stroke="black" stroke-width="2" stroke-linecap="round" stroke-linejoin="round"/>
    <path d="M258.255 254.21L278.462 247.424" stroke="black" stroke-width="2" stroke-linecap="round" stroke-linejoin="round"/>
    <path d="M258.904 215.17L249.869 205.124L222.407 214.348L234.357 227.635L256.685 220.137C256.846 218.279 257.627 216.529 258.904 215.17Z" fill="#3755FA"/>
    <path d="M47.4308 38.2609C46.0289 37.9704 44.5806 37.9881 43.1861 38.3127C38.8579 39.248 34.4003 42.6091 30.8481 46.3602L50.9471 39.6062C49.8549 38.9717 48.6676 38.5175 47.4308 38.2609Z" fill="#3755FA"/>
    <path d="M47.4308 38.2609C46.0289 37.9704 44.5806 37.9881 43.1861 38.3127C38.8579 39.248 34.4003 42.6091 30.8481 46.3602L50.9471 39.6062C49.8549 38.9717 48.6676 38.5175 47.4308 38.2609Z" stroke="black" stroke-width="2" stroke-linecap="round" stroke-linejoin="round"/>
    <path d="M123.544 65.3646C122.68 59.9493 122.332 54.4641 122.506 48.9829C122.792 24.685 118.464 18.4086 111.262 16.8245C109.902 16.5287 108.492 16.5478 107.141 16.8803L43.1882 38.3126C44.5827 37.988 46.031 37.9703 47.4329 38.2608C54.6347 39.8429 58.965 46.1193 58.6764 70.4192C58.5112 84.3393 59.8823 97.3101 68.6383 100.411C71.0959 101.326 73.7504 101.582 76.3377 101.153L122.83 85.6308" stroke="black" stroke-width="2" stroke-linecap="round" stroke-linejoin="round"/>
    <path d="M79.7703 47.4985L105.123 39.3992" stroke="black" stroke-width="2" stroke-linecap="round" stroke-linejoin="round"/>
    <path d="M80.9543 62.1945L106.307 54.0952" stroke="black" stroke-width="2" stroke-linecap="round" stroke-linejoin="round"/>
    <path d="M122.559 84.7254C120.223 76.9922 115.258 69.7208 107.262 70.871C103.252 71.5797 99.6121 73.6598 96.9658 76.7554C89.0516 85.6626 88.2098 95.8594 79.7722 100.003L122.828 85.6209L122.559 84.7254Z" fill="#3755FA"/>
    <path d="M122.559 84.7254C120.223 76.9922 115.258 69.7208 107.262 70.871C103.252 71.5797 99.6121 73.6598 96.9658 76.7554C89.0516 85.6626 88.2098 95.8594 79.7722 100.003L122.828 85.6209L122.559 84.7254Z" stroke="black" stroke-width="2" stroke-linecap="round" stroke-linejoin="round"/>
    <path d="M186.385 63.287C183.845 54.8773 178.389 47.7252 170.146 49.5958L107.266 70.8689C115.262 69.7207 120.227 76.9921 122.563 84.7253C138.929 138.937 145.249 167.657 154.151 219.968L217.592 198.665C208.679 146.352 202.746 117.503 186.385 63.285V63.287Z" stroke="black" stroke-width="2" stroke-linecap="round" stroke-linejoin="round"/>
    <path d="M143.904 83.7641L169.257 75.6648" stroke="black" stroke-width="2" stroke-linecap="round" stroke-linejoin="round"/>
    <path d="M148.499 98.144L173.85 90.0447" stroke="black" stroke-width="2" stroke-linecap="round" stroke-linejoin="round"/>
    <path d="M152.137 112.524L177.489 104.424" stroke="black" stroke-width="2" stroke-linecap="round" stroke-linejoin="round"/>
    <path d="M155.856 126.891L181.207 118.79" stroke="black" stroke-width="2" stroke-linecap="round" stroke-linejoin="round"/>
    <path d="M163.874 159.086L189.226 150.986" stroke="black" stroke-width="2" stroke-linecap="round" stroke-linejoin="round"/>
    <path d="M166.739 173.611L192.092 165.511" stroke="black" stroke-width="2" stroke-linecap="round" stroke-linejoin="round"/>
    <path d="M169.643 188.088L194.995 179.987" stroke="black" stroke-width="2" stroke-linecap="round" stroke-linejoin="round"/>
    <path d="M278.139 134.676L270.484 137.086L299.094 193.626L346.767 178.617L343.187 171.541" stroke="black" stroke-width="2" stroke-linecap="round" stroke-linejoin="round"/>
    <path d="M350.842 169.131L303.17 184.138L274.559 127.598L322.23 112.593L350.842 169.129V169.131Z" stroke="black" stroke-width="2" stroke-linecap="round" stroke-linejoin="round"/>
    <path d="M301.655 143.088L318.479 137.791" stroke="black" stroke-width="2" stroke-linecap="round" stroke-linejoin="round"/>
    <path d="M304.788 149.277L321.609 143.979" stroke="black" stroke-width="2" stroke-linecap="round" stroke-linejoin="round"/>
    <path d="M307.715 155.062L324.538 149.765" stroke="black" stroke-width="2" stroke-linecap="round" stroke-linejoin="round"/>
    <path d="M248.309 290.101C248.867 288.02 248.583 285.803 247.518 283.93C246.454 282.057 244.695 280.678 242.622 280.091C240.549 279.505 238.328 279.758 236.44 280.796C234.552 281.834 233.148 283.573 232.533 285.638C230.141 294.105 226.879 302.303 222.8 310.099C220.362 295.12 230.32 284.334 231.044 264.329C231.491 260.032 230.487 255.71 228.193 252.051C224.053 246.148 216.85 244.254 206.808 246.425C205.756 246.652 204.76 247.084 203.875 247.697C202.99 248.309 202.235 249.09 201.652 249.994C201.069 250.898 200.67 251.909 200.477 252.967C200.284 254.026 200.302 255.112 200.53 256.164C200.757 257.216 201.189 258.212 201.801 259.097C202.414 259.982 203.194 260.737 204.099 261.32C205.003 261.903 206.013 262.302 207.072 262.495C208.131 262.687 209.217 262.67 210.269 262.442C211.711 262.084 213.194 261.911 214.68 261.929C215.047 271.021 210.899 281.077 208.533 289.323C204.625 270.699 197.497 249.897 187.505 240.331C185.928 238.867 183.838 238.082 181.687 238.145C179.536 238.208 177.496 239.114 176.007 240.668C174.518 242.222 173.7 244.299 173.729 246.451C173.758 248.603 174.632 250.657 176.162 252.17C181.722 257.493 186.755 270.13 190.311 283.522C187.376 273.771 179.107 255.487 168.835 246.498C167.199 245.067 165.061 244.345 162.892 244.49C160.723 244.635 158.701 245.635 157.27 247.272C155.839 248.908 155.116 251.045 155.261 253.214C155.406 255.383 156.407 257.405 158.043 258.836C163.474 263.589 172.443 278.195 175.917 293.218C172.789 281.723 166.547 271.315 157.88 263.143C156.28 261.686 154.169 260.92 152.007 261.013C149.845 261.106 147.807 262.05 146.338 263.638C144.869 265.229 144.089 267.335 144.169 269.499C144.248 271.662 145.18 273.706 146.762 275.184C160.304 287.685 163.619 306.358 163.531 319.346C163.673 333.664 168.869 347.471 178.202 358.33C186.206 366.758 189.525 383.426 190.285 383.387C194.223 383.174 234.401 370.718 234.401 370.718C234.401 370.718 224.668 341.34 226.722 339.244C239.239 326.467 242.405 310.956 248.309 290.101Z" stroke="black" stroke-width="2" stroke-linecap="round" stroke-linejoin="round"/>
    <path d="M342.528 237.44C335.915 221.701 329.619 215.749 308.459 208.836C307.243 208.437 305.95 208.332 304.686 208.527C303.421 208.723 302.22 209.215 301.182 209.962C298.935 208.884 296.665 207.854 294.374 206.872C292.518 206.061 290.428 205.967 288.508 206.607C286.587 207.248 284.972 208.578 283.974 210.34C283.315 211.508 282.953 212.82 282.92 214.161C276.581 212.074 269.819 211.619 263.258 212.838C261.543 213.177 259.981 214.056 258.8 215.346C257.619 216.635 256.881 218.269 256.693 220.008C256.508 221.746 256.883 223.499 257.764 225.009C258.644 226.52 259.984 227.71 261.589 228.405C258.203 229.364 254.985 230.841 252.051 232.783C250.317 234.016 249.131 235.874 248.742 237.965C248.353 240.056 248.792 242.217 249.966 243.991C251.14 245.764 252.957 247.012 255.034 247.471C257.111 247.929 259.285 247.563 261.097 246.449C265.726 243.384 271.35 242.654 275.101 244.63C280.022 247.217 282.663 254.232 284.798 261.421C287.184 269.489 289.3 277.634 291.144 285.843C281.558 281.487 272.752 275.587 265.075 268.38C264.306 267.628 263.396 267.035 262.397 266.634C261.398 266.234 260.33 266.034 259.254 266.046C258.178 266.058 257.115 266.282 256.126 266.705C255.136 267.129 254.24 267.742 253.487 268.512C252.735 269.281 252.142 270.191 251.741 271.19C251.341 272.189 251.141 273.257 251.153 274.333C251.165 275.409 251.389 276.472 251.812 277.461C252.236 278.451 252.849 279.347 253.619 280.1C266.403 292.595 283.142 308.19 304.002 314.077C304.159 314.121 315.864 344.454 316.023 344.49C320.228 345.415 360.758 332.053 360.758 332.053C360.758 332.053 347.754 249.867 342.528 237.44Z" stroke="black" stroke-width="2" stroke-linecap="round" stroke-linejoin="round"/>
    <path d="M261.589 228.405C268.598 226.224 276.179 226.845 282.74 230.137C293.132 235.442 297.518 246.654 300.517 256.777" stroke="black" stroke-width="2" stroke-linecap="round" stroke-linejoin="round"/>
    <path d="M282.691 214.079C293.134 217.369 303.711 222.983 308.626 232.785C310.868 238.449 312.761 244.245 314.294 250.14" stroke="black" stroke-width="2" stroke-linecap="round" stroke-linejoin="round"/>
    <path d="M301.182 209.962C307.472 213.031 314.152 216.981 318.704 223.572C322.757 229.577 325.992 236.095 328.323 242.954" stroke="black" stroke-width="2" stroke-linecap="round" stroke-linejoin="round"/>
</svg>
