<svg width="400" height="400" viewBox="0 0 400 400" fill="none" xmlns="http://www.w3.org/2000/svg">
    <path d="M184.698 174.709L163.998 148.658L104.38 134.328L10.9492 188.379L140.301 351.242L266.718 277.934L241.475 246.164" stroke="black" stroke-width="2" stroke-linecap="round" stroke-linejoin="round"/>
    <path d="M130.785 167.804L98.1367 137.9L104.379 134.29L130.785 167.804Z" fill="#3755FA"/>
    <path d="M130.785 167.804L98.1367 137.9L104.379 134.29L130.785 167.804Z" stroke="black" stroke-width="2" stroke-linecap="round" stroke-linejoin="round"/>
    <path d="M188.07 251.756C172.657 242.875 163.659 227.844 163.84 213.84C152.909 211.401 141.465 213.033 131.651 218.429C111.716 229.971 108.368 255.517 124.203 275.415C140.037 295.349 169.038 302.121 188.973 290.539C194.638 287.372 199.281 282.653 202.355 276.937C205.429 271.221 206.806 264.745 206.324 258.273C199.891 257.239 193.704 255.029 188.07 251.756Z" fill="#D5FEC8"/>
    <path d="M188.07 251.756C172.657 242.875 163.659 227.844 163.84 213.84C152.909 211.401 141.465 213.033 131.651 218.429C111.716 229.971 108.368 255.517 124.203 275.415C140.037 295.349 169.038 302.121 188.973 290.539C194.638 287.372 199.281 282.653 202.355 276.937C205.429 271.221 206.806 264.745 206.324 258.273C199.891 257.239 193.704 255.029 188.07 251.756Z" stroke="black" stroke-width="2" stroke-linecap="round" stroke-linejoin="round"/>
    <path d="M163.96 148.582L130.784 167.804L104.379 134.29" stroke="black" stroke-width="2" stroke-linecap="round" stroke-linejoin="round"/>
    <path d="M50.2188 201.015L105.774 168.857" stroke="black" stroke-width="2" stroke-linecap="round" stroke-linejoin="round"/>
    <path d="M67.5566 222.907L153.992 172.878" stroke="black" stroke-width="2" stroke-linecap="round" stroke-linejoin="round"/>
    <path d="M134.434 264.056L172.198 274.136L170.845 235.884" stroke="black" stroke-width="2" stroke-linecap="round" stroke-linejoin="round"/>
    <path d="M176.259 184.804L167.722 199.475C158.017 216.248 167.125 239.673 188.07 251.756C206.832 262.617 231.85 261.943 243.625 243.105L252.007 228.567" stroke="black" stroke-width="2" stroke-linecap="round" stroke-linejoin="round"/>
    <path d="M190.768 171.163C183.678 174.211 178.077 179.931 175.18 187.083C167.984 204.77 179.492 225.458 197.323 235.731C213.195 244.896 233.921 245.782 246.822 234.451C248.792 232.722 250.531 230.747 251.996 228.574" stroke="black" stroke-width="2" stroke-linecap="round" stroke-linejoin="round"/>
    <path d="M304.559 112.55L295.23 128.649C291.771 134.666 284.436 137.825 276.235 137.825C252.236 137.825 232.597 113.105 241.52 97.6544L250.809 81.5553C246.596 88.8904 249.042 97.9171 253.707 104.727C267.276 124.543 296.201 126.935 304.559 112.55Z" stroke="black" stroke-width="2" stroke-linecap="round" stroke-linejoin="round"/>
    <path d="M338.035 176.04C326.423 200.062 303.463 227.319 284.812 242.24C278.264 241.248 271.869 239.428 265.78 236.823C253.957 230.894 243.394 222.732 234.674 212.788L248.063 189.769C245.909 185.858 243.951 181.841 242.197 177.734C240.376 178.62 238.326 178.922 236.328 178.598C239.413 188.603 235.088 192.816 228.392 191.95C231.289 201.242 224.669 205.084 215.604 201.618C216.882 208.951 206.365 210.052 197.925 202.971C191.215 197.339 180.538 181.429 187.776 174.315C188.689 173.43 189.863 172.863 191.123 172.697C189.77 167.543 190.128 162.337 195.149 159.307C195.974 158.796 196.897 158.464 197.857 158.329C196.419 150.272 200.659 144.694 206.884 142.869C206.944 140.825 207.533 138.832 208.593 137.084C209.654 135.336 211.15 133.894 212.936 132.897C209.763 128.014 207.294 122.709 205.6 117.138C203.672 109.194 209.779 104.484 217.901 110.745C220.575 112.808 224.105 115.783 228.318 119.206C229.484 118.529 240.505 113.113 240.505 113.113C240.937 114.458 241.478 115.767 242.123 117.025C242.123 117.025 240.133 120.486 236.933 125.94C247.201 133.614 259.876 141.812 273.38 146.25L278.231 137.892C283.947 137.748 289.382 135.389 293.389 131.311C306.046 142.405 299.93 136.477 338.035 176.04Z" stroke="black" stroke-width="2" stroke-linecap="round" stroke-linejoin="round"/>
    <path d="M297.374 119.132C278.903 128.535 249.861 111.636 248.702 91.1093C248.044 79.4519 257.458 72.3794 269.796 72.3794C284.353 72.3794 299.744 82.3194 304.966 95.6624C308.695 105.177 306.496 114.488 297.374 119.132Z" fill="#3755FA"/>
    <path d="M297.374 119.132C278.903 128.535 249.861 111.636 248.702 91.1093C248.044 79.4519 257.458 72.3794 269.796 72.3794C284.353 72.3794 299.744 82.3194 304.966 95.6624C308.695 105.177 306.496 114.488 297.374 119.132Z" stroke="black" stroke-width="2" stroke-linecap="round" stroke-linejoin="round"/>
    <path d="M265.818 236.815C263.109 243.625 262.658 248.556 264.952 250.468C268.037 253.028 275.483 249.641 284.852 242.232C278.338 241.088 271.959 239.273 265.818 236.815Z" fill="#3755FA"/>
    <path d="M265.818 236.815C263.109 243.625 262.658 248.556 264.952 250.468C268.037 253.028 275.483 249.641 284.852 242.232C278.338 241.088 271.959 239.273 265.818 236.815Z" stroke="black" stroke-width="2" stroke-linecap="round" stroke-linejoin="round"/>
    <path d="M325.811 163.328L338.035 176.04C346.359 157.872 340.266 153.609 325.811 163.328Z" fill="#3755FA"/>
    <path d="M325.811 163.328L338.035 176.04C346.359 157.872 340.266 153.609 325.811 163.328Z" stroke="black" stroke-width="2" stroke-linecap="round" stroke-linejoin="round"/>
    <path d="M251.975 228.549C251.183 229.786 250.289 230.957 249.304 232.047L234.674 212.788C239.834 218.672 245.637 223.958 251.975 228.549Z" fill="#3755FA"/>
    <path d="M251.975 228.549C251.183 229.786 250.289 230.957 249.304 232.047L234.674 212.788C239.834 218.672 245.637 223.958 251.975 228.549Z" stroke="black" stroke-width="2" stroke-linecap="round" stroke-linejoin="round"/>
    <path d="M364.588 201.58C364.601 202.251 364.481 202.917 364.233 203.54C363.986 204.164 363.616 204.731 363.147 205.21C362.677 205.689 362.117 206.069 361.499 206.329C360.88 206.588 360.216 206.722 359.546 206.722C358.875 206.722 358.211 206.588 357.593 206.328C356.975 206.068 356.414 205.688 355.945 205.209C355.476 204.73 355.106 204.162 354.859 203.538C354.612 202.915 354.491 202.249 354.505 201.578C354.531 200.258 355.074 199.002 356.017 198.078C356.96 197.154 358.228 196.636 359.548 196.637C360.868 196.637 362.135 197.155 363.077 198.079C364.02 199.003 364.562 200.26 364.588 201.58Z" fill="#3755FA"/>
    <path d="M364.588 201.58C364.601 202.251 364.481 202.917 364.233 203.54C363.986 204.164 363.616 204.731 363.147 205.21C362.677 205.689 362.117 206.069 361.499 206.329C360.88 206.588 360.216 206.722 359.546 206.722C358.875 206.722 358.211 206.588 357.593 206.328C356.975 206.068 356.414 205.688 355.945 205.209C355.476 204.73 355.106 204.162 354.859 203.538C354.612 202.915 354.491 202.249 354.505 201.578C354.531 200.258 355.074 199.002 356.017 198.078C356.96 197.154 358.228 196.636 359.548 196.637C360.868 196.637 362.135 197.155 363.077 198.079C364.02 199.003 364.562 200.26 364.588 201.58Z" stroke="black" stroke-width="2" stroke-linecap="round" stroke-linejoin="round"/>
    <path d="M278.267 137.789C270.903 138.012 263.622 136.177 257.243 132.489C250.864 128.801 245.64 123.407 242.159 116.914C242.159 116.914 240.169 120.372 236.969 125.829C247.237 133.5 259.911 141.699 273.416 146.139L278.267 137.789Z" fill="#D5FEC8"/>
    <path d="M278.267 137.789C270.903 138.012 263.622 136.177 257.243 132.489C250.864 128.801 245.64 123.407 242.159 116.914C242.159 116.914 240.169 120.372 236.969 125.829C247.237 133.5 259.911 141.699 273.416 146.139L278.267 137.789Z" stroke="black" stroke-width="2" stroke-linecap="round" stroke-linejoin="round"/>
    <path d="M248.027 189.77C245.871 185.858 243.913 181.841 242.159 177.734C240.338 178.621 238.289 178.922 236.29 178.598C239.375 188.603 235.05 192.816 228.354 191.951C231.251 201.242 224.631 205.085 215.566 201.618C216.846 208.951 206.327 210.052 197.887 202.971C197.489 202.629 197.023 202.175 196.494 201.694C198.687 207.762 203.039 212.81 208.719 215.872C216.237 220.199 228.931 222.266 233.017 215.458L248.027 189.77Z" fill="#D5FEC8"/>
    <path d="M248.027 189.77C245.871 185.858 243.913 181.841 242.159 177.734C240.338 178.621 238.289 178.922 236.29 178.598C239.375 188.603 235.05 192.816 228.354 191.951C231.251 201.242 224.631 205.085 215.566 201.618C216.846 208.951 206.327 210.052 197.887 202.971C197.489 202.629 197.023 202.175 196.494 201.694C198.687 207.762 203.039 212.81 208.719 215.872C216.237 220.199 228.931 222.266 233.017 215.458L248.027 189.77Z" stroke="black" stroke-width="2" stroke-linecap="round" stroke-linejoin="round"/>
    <path d="M248.027 189.77C252.652 198.044 258.672 206.056 265.591 208.989" stroke="black" stroke-width="2" stroke-linecap="round" stroke-linejoin="round"/>
    <path d="M236.968 125.827C228.106 119.208 223.929 115.262 217.935 110.669C209.826 104.454 203.727 109.125 205.635 117.063C208.893 130.605 229.207 156.606 238.134 167.09C238.134 167.09 239.563 171.603 242.195 177.734" stroke="black" stroke-width="2" stroke-linecap="round" stroke-linejoin="round"/>
    <path d="M288.045 149.255C283.051 148.788 278.129 147.741 273.377 146.135" stroke="black" stroke-width="2" stroke-linecap="round" stroke-linejoin="round"/>
    <path d="M197.775 157.685C199.391 168.594 210.406 180.787 213.534 183.79C217.534 187.961 222.722 190.797 228.392 191.913" stroke="black" stroke-width="2" stroke-linecap="round" stroke-linejoin="round"/>
    <path d="M242.188 177.734C237.862 179.953 230.568 178.596 222.179 170.851C218.304 167.269 206.531 153.538 206.907 142.792" stroke="black" stroke-width="2" stroke-linecap="round" stroke-linejoin="round"/>
    <path d="M191.154 172.656C193.298 180.705 199.876 189.322 202.551 192.213C206.145 196.283 210.605 199.497 215.603 201.618" stroke="black" stroke-width="2" stroke-linecap="round" stroke-linejoin="round"/>
    <path d="M340.328 159.04L387.081 199.399" stroke="black" stroke-width="2" stroke-linecap="round" stroke-linejoin="round"/>
    <path d="M264.99 250.514L308.959 288.955" stroke="black" stroke-width="2" stroke-linecap="round" stroke-linejoin="round"/>
    <path d="M267.094 321.191C268.054 321.19 268.994 321.474 269.793 322.008C270.592 322.541 271.215 323.299 271.583 324.186C271.951 325.073 272.047 326.05 271.86 326.992C271.673 327.934 271.211 328.8 270.532 329.479C269.853 330.159 268.987 330.621 268.045 330.809C267.103 330.996 266.127 330.9 265.239 330.532C264.352 330.165 263.593 329.542 263.06 328.743C262.526 327.944 262.242 327.005 262.242 326.045C262.245 324.759 262.757 323.526 263.667 322.617C264.576 321.707 265.808 321.195 267.094 321.191Z" stroke="black" stroke-width="2" stroke-linecap="round" stroke-linejoin="round"/>
    <path d="M160.348 48.7581L160.311 81.5552" stroke="black" stroke-width="2" stroke-linecap="round" stroke-linejoin="round"/>
    <path d="M176.747 65.1934L143.91 65.1576" stroke="black" stroke-width="2" stroke-linecap="round" stroke-linejoin="round"/>
    <path d="M348.414 102.808L351.761 109.541L359.17 110.631L353.791 115.859L355.071 123.27L348.414 119.771L341.793 123.27L343.035 115.859L337.656 110.631L345.103 109.541L348.414 102.808Z" stroke="black" stroke-width="2" stroke-linecap="round" stroke-linejoin="round"/>
</svg>
